<svg xmlns="http://www.w3.org/2000/svg" viewBox="0 0 221 41"><path fill="#191819" fill-rule="evenodd" d="M220.2 40.4h-19.5a.9.9 0 01-.8-.8v-38c0-.5.4-1 .8-1h4.9c.5 0 .8.5.8 1v31.3c0 .5.4.9.9.9h12.9c.4 0 .8.4.8.8v5c0 .5-.4.8-.8.8zm-25.6 0h-5.4c-.5 0-1-.3-1.2-.8l-1-3c-.3-.4-.8-.8-1.2-.8h-12.2c-.4 0-1 .4-1.1.8l-1.1 3c-.2.5-.7.8-1.1.8h-5.4c-.5 0-.7-.3-.6-.8l15-39.3c.3-.4.5-.4.7 0l15.1 39.3c.2.5 0 .8-.5.8zm-10.4-11.1L180 17c-.2-.4-.4-.4-.6 0l-4.2 12.2c-.2.4.1.8.6.8h7.8c.5 0 .8-.4.6-.8zm-25.5 11.1h-4.9a.9.9 0 01-.8-.8V24.7c0-.5-.4-.9-.9-.9h-14.7c-.4 0-.8.4-.8.9v14.9c0 .5-.4.8-.8.8h-5a.9.9 0 01-.8-.8v-38c0-.5.4-1 .9-1h4.9c.4 0 .8.5.8 1v14.7c0 .5.4.8.8.8h14.7c.5 0 .9-.3.9-.8V1.5c0-.4.3-.8.8-.8h4.9c.4 0 .8.4.8.8v38c0 .6-.4 1-.8 1zm-53.4.6C97.4 41 91 34.5 91 26.5v-25c0-.4.4-.8.8-.8h4.9c.5 0 .8.4.8.8v25c0 4.3 3.5 7.9 7.8 7.9s7.7-3.6 7.7-7.9v-25c0-.4.4-.8.9-.8h4.9c.4 0 .8.4.8.8v25c0 8-6.4 14.5-14.3 14.5zM81.5.7c.5 0 .7.3.5.8L68.3 33c-.2.4 0 .8.5.8h11c.5 0 .9.4.9.8v5c0 .5-.4.8-.9.8H58.7c-.5 0-.7-.3-.6-.7L72 8c.2-.4 0-.8-.5-.8H59.9a.9.9 0 01-.9-.8v-5c0-.4.4-.8.9-.8h21.6zM25.7 8.8c.5 0 .6.3.4.7L7 36c-.2.4 0 .7.4.7h29.2c.5 0 .8-.4.8-.9V18.5c0-.4.2-1.1.5-1.5l2.6-3.6c.3-.4.5-.3.5.1v26c0 .4-.4.8-.8.8H.5c-.5 0-.6-.3-.4-.7l.3-.3 18.7-26.1.2-.3c.3-.4.1-.7-.3-.7h-4.8c-.4 0-1 .3-1.3.7l-2.5 3.3c-.2.3-.4.2-.4-.2V9.6c0-.4.3-.8.8-.8h15zM42.4.5c.5 0 .6.3.4.7L23.6 28c-.3.4-.1.7.3.7h4.8c.5 0 1-.3 1.3-.7l2.5-3.3c.2-.4.5-.3.5.2v6.3c0 .5-.4.9-.9.9h-15c-.4 0-.5-.3-.3-.7l19-26.5c.2-.4 0-.7-.4-.7H6.2c-.4 0-.8.4-.8.8v17.3c0 .5-.2 1-.5 1.5l-2.6 3.7c-.3.4-.5.3-.5-.2v-26c0-.4.4-.8.8-.8h39.8z"/></svg>